# xmcd
#
# Track frame offsets: 
#        150
#        9640
#        22782
#        37480
#        52732
#        64415
#        77230
#        92257
#        105455
#        117317
#        131960
#        144857
#        157717
#        171810
#        182090
#        195800
#        210840
#        224820
#
# Disc length: 3214 seconds
#
# Revision: 15
# Processed by: cddbd v1.5.2PL0 Copyright (c) Steve Scherf et al.
# Submitted via: ExactAudioCopy v1.0b3
#
DISCID=ea0c8c12
DTITLE=George Strait - Strait Out Of The Box - Disc 2
DYEAR=1995
DGENRE=Country
TTITLE0=Right Or Wrong
TTITLE1=Let's Fall To Pieces Together
TTITLE2=Does Fort Worth Ever Cross Your Mind
TTITLE3=The Cowboy Rides Away
TTITLE4=The Fireman
TTITLE5=The Chair
TTITLE6=You're Something Special To Me
TTITLE7=Haven't You Heard
TTITLE8=In Too Deep
TTITLE9=Lefty's Gone
TTITLE10=Nobody In His Right Mind Would've Left Her
TTITLE11=It Ain't Cool To Be Crazy About You
TTITLE12=Ocean Front Property
TTITLE13=Rhythm Of The Road
TTITLE14=Six Pack To Go
TTITLE15=All My Ex's Live In Texas
TTITLE16=Am I Blue
TTITLE17=Famous Last Words Of A Fool
EXTD=YEAR: 1995
EXTT0=
EXTT1=
EXTT2=
EXTT3=
EXTT4=
EXTT5=
EXTT6=
EXTT7=
EXTT8=
EXTT9=
EXTT10=
EXTT11=
EXTT12=
EXTT13=
EXTT14=
EXTT15=
EXTT16=
EXTT17=
PLAYORDER=
